<?xml version="1.0" standalone="no"?>
<!DOCTYPE svg PUBLIC "-//W3C//DTD SVG 1.1//EN" "http://www.w3.org/Graphics/SVG/1.1/DTD/svg11.dtd" >
<svg xmlns="http://www.w3.org/2000/svg">
<metadata>Generated by IcoMoon</metadata>
<defs>
<font id="icon_new" horiz-adv-x="1024">
<font-face units-per-em="1024" ascent="960" descent="-64" />
<missing-glyph horiz-adv-x="1024" />
<glyph unicode="&#x20;" horiz-adv-x="512" d="" />
<glyph unicode="&#xe900;" glyph-name="rule" d="M917.333 960h-810.667c-58.91 0-106.667-47.756-106.667-106.667v0-810.667c0-58.91 47.756-106.667 106.667-106.667v0h810.667c58.91 0 106.667 47.756 106.667 106.667v0 810.667c0 58.91-47.756 106.667-106.667 106.667v0zM981.333 42.667c0-35.346-28.654-64-64-64v0h-810.667c-35.346 0-64 28.654-64 64v0 810.667c0 35.346 28.654 64 64 64v0h810.667c35.346 0 64-28.654 64-64v0zM533.333 723.2v108.8h-42.667v-108.8c-49.089-10.229-85.44-53.136-85.44-104.533s36.352-94.304 84.747-104.412l0.693-0.121v-450.133h42.667v450.133c49.089 10.229 85.44 53.136 85.44 104.533s-36.352 94.304-84.747 104.412l-0.693 0.121zM512 554.667c-35.346 0-64 28.654-64 64s28.654 64 64 64c35.346 0 64-28.654 64-64v0c0-35.346-28.654-64-64-64v0zM789.333 488.533v343.467h-42.667v-343.467c-49.089-10.229-85.44-53.136-85.44-104.533s36.352-94.304 84.747-104.412l0.693-0.121v-215.467h42.667v215.467c49.089 10.229 85.44 53.136 85.44 104.533s-36.352 94.304-84.747 104.412l-0.693 0.121zM768 320c-35.346 0-64 28.654-64 64s28.654 64 64 64c35.346 0 64-28.654 64-64v0c0-35.346-28.654-64-64-64v0zM277.333 403.2v428.8h-42.667v-428.8c-49.089-10.229-85.44-53.136-85.44-104.533s36.352-94.304 84.747-104.412l0.693-0.121v-130.133h42.667v130.133c49.089 10.229 85.44 53.136 85.44 104.533s-36.352 94.304-84.747 104.412l-0.693 0.121zM256 234.667c-35.346 0-64 28.654-64 64s28.654 64 64 64c35.346 0 64-28.654 64-64v0c0-35.346-28.654-64-64-64v0z" />
<glyph unicode="&#xe901;" glyph-name="approvallist" d="M789.333-42.667h-554.667c-47.125 0-85.333 38.208-85.333 85.333v810.667c0 47.125 38.208 85.333 85.333 85.333h404.757c0.043 0 0.107 0 0.149 0h0.427c6.827 0 12.651-3.435 16.555-8.427l209.685-209.685c5.013-3.904 8.427-9.728 8.427-16.555v0-0.448c0-0.043 0-0.064 0-0.107v-660.779c0-47.125-38.208-85.333-85.333-85.333zM661.333 866.539v-141.205h141.205l-141.205 141.205zM832 682.667h-192c-11.797 0-21.333 9.557-21.333 21.333v192h-384c-23.552 0-42.667-19.115-42.667-42.667v-810.667c0-23.552 19.115-42.667 42.667-42.667h554.667c23.552 0 42.667 19.115 42.667 42.667v640zM704 128h-384c-11.797 0-21.333 9.536-21.333 21.333 0 11.776 9.536 21.333 21.333 21.333h384c11.797 0 21.333-9.557 21.333-21.333 0-11.797-9.536-21.333-21.333-21.333zM704 298.667h-384c-11.797 0-21.333 9.536-21.333 21.333 0 11.776 9.536 21.333 21.333 21.333h384c11.797 0 21.333-9.557 21.333-21.333 0-11.797-9.536-21.333-21.333-21.333zM704 469.333h-384c-11.797 0-21.333 9.536-21.333 21.333 0 11.776 9.536 21.333 21.333 21.333h384c11.797 0 21.333-9.557 21.333-21.333 0-11.797-9.536-21.333-21.333-21.333z" />
<glyph unicode="&#xe902;" glyph-name="profile" d="M512 0c-247.424 0-448 200.576-448 448s200.576 448 448 448 448-200.576 448-448-200.576-448-448-448zM760.171 128c-3.349 4.928-7.573 11.051-10.965 15.829-5.909 8.405-11.819 16.811-17.109 25.131-0.256 0.384-29.483 39.595-134.763 44.373-36.629 0-63.253 27.477-63.317 65.408l-0.683 19.925c0 2.88-0.341-3.157 0 0v21.333l21.333 21.333c15.595 7.232 35.413 19.392 51.093 31.232l2.88 1.984c12.395 7.872 29.717 24.448 31.36 30.784l0.768 8.128c7.957 41.024 20.565 115.648 20.565 141.205 0 100.48-48.853 149.333-149.333 149.333-101.867 0-149.333-47.445-149.333-149.333 0-26.24 12.608-100.501 20.544-141.141l0.747-7.509c1.344-6.677 17.045-22.485 30.912-31.189l2.091-1.323c16.811-11.755 36.907-24.853 52.373-32.171l21.333-21.333v-21.333c0.299-2.944 0 3.115 0 0l-0.704-19.925c0-37.867-26.581-65.365-61.504-65.365-0.021 0-0.043 0-0.064 0-105.728-4.288-136.384-44.309-136.427-44.309-5.376-8.448-11.264-16.832-17.216-25.259-3.349-4.779-7.573-10.88-10.944-15.808 68.629-53.291 154.56-85.333 248.171-85.333s179.563 32.043 248.192 85.333zM512 853.333c-223.851 0-405.333-181.483-405.333-405.333 0-114.901 48-218.389 124.8-292.139 8.149 12.053 16.853 24.085 24.533 36.139 0 0 35.627 58.517 170.667 64 13.76 0 20.629 9.003 20.629 22.741h0.021c-0.021 11.115-0.021 19.925-0.021 19.925 0 2.773-0.448 5.269-0.576 7.957-15.445 7.296-33.365 17.365-54.165 31.872 0 0-51.2 31.488-51.2 66.837 0 0-21.333 109.141-21.333 149.333 0 99.072 42.368 192 192 192 147.627 0 192-92.928 192-192 0-39.211-21.333-149.333-21.333-149.333 0-34.368-51.2-66.837-51.2-66.837-20.373-15.381-38.421-25.643-54.251-32.981-0.107-2.325-0.491-4.459-0.491-6.848 0 0-0.021-8.811-0.021-19.925h0.021c-0.043-13.739 6.827-22.741 20.587-22.741 137.045-6.144 170.667-64 170.667-64 7.68-12.053 16.363-24.085 24.512-36.139 76.8 73.749 124.821 177.237 124.821 292.139 0 223.851-181.483 405.333-405.333 405.333z" />
<glyph unicode="&#xe903;" glyph-name="draft" d="M929.813 770.133l-417.813 189.867-469.333-213.333v-597.333l469.333-213.333 469.333 213.333v597.333l-51.52 23.467zM512 866.24l314.667-143.040-314.667-143.040-314.773 143.040 314.773 143.040zM128 204.267v456.747l341.333-155.093v-456.747l-341.333 155.093zM896 204.267l-341.333-155.093v456.747l341.333 155.093v-456.747z" />
<glyph unicode="&#xe904;" glyph-name="approvalcompletion" d="M512 917.333c-259.2 0-469.333-210.123-469.333-469.333s210.133-469.333 469.333-469.333 469.333 210.123 469.333 469.333-210.133 469.333-469.333 469.333zM512 64c-212.075 0-384 171.925-384 384s171.925 384 384 384 384-171.925 384-384-171.925-384-384-384zM685.696 563.52c-16.661 16.651-43.68 16.651-60.341 0l-150.848-150.859-60.341 60.341c-16.661 16.661-43.669 16.661-60.341 0-16.661-16.661-16.661-43.68 0-60.352l90.496-90.485c16.661-16.661 43.691-16.661 60.352 0l181.013 181.013c16.672 16.661 16.693 43.669 0.011 60.341z" />
<glyph unicode="&#xe905;" glyph-name="addfile" d="M896 960h-554.667l-341.333-341.333v-640c0-25.6 17.067-42.667 42.667-42.667h853.333c25.6 0 42.667 17.067 42.667 42.667v938.667c0 25.6-17.067 42.667-42.667 42.667zM341.333 853.333v-234.667h-234.667l234.667 234.667zM853.333 21.333h-768v554.667h256c25.6 0 42.667 17.067 42.667 42.667v256h469.333v-853.333zM256 320h170.667v-170.667h85.333v170.667h170.667v85.333h-170.667v170.667h-85.333v-170.667h-170.667z" />
<glyph unicode="&#xe906;" glyph-name="edit" d="M896 960h-554.667l-341.333-341.333v-640c0-25.6 17.067-42.667 42.667-42.667h853.333c25.6 0 42.667 17.067 42.667 42.667v938.667c0 25.6-17.067 42.667-42.667 42.667zM341.333 853.333v-234.667h-234.667l234.667 234.667zM853.333 21.333h-768v554.667h256c25.6 0 42.667 17.067 42.667 42.667v256h469.333v-853.333zM298.667 149.333h85.333l-85.333 85.333zM680.958 447.142l-256.442-256.442-84.475 84.475 256.442 256.442 84.475-84.475z" />
<glyph unicode="&#xe907;" glyph-name="editcancel" d="M896 960h-554.667l-341.333-341.333v-640c0-25.6 17.067-42.667 42.667-42.667h853.333c25.6 0 42.667 17.067 42.667 42.667v938.667c0 25.6-17.067 42.667-42.667 42.667zM341.333 853.333v-234.667h-234.667l234.667 234.667zM853.333 21.333h-768v554.667h256c25.6 0 42.667 17.067 42.667 42.667v256h469.333v-853.333zM280.533 337.408c0 151.040 122.325 273.365 273.365 273.365v0c150.997 0 273.365-122.325 273.408-273.365v0c-0.043-150.997-122.411-273.365-273.408-273.408v0c-151.040 0.043-273.365 122.411-273.365 273.408v0zM344.832 337.408c0.213-115.413 93.653-208.853 209.067-209.067v0c115.413 0.256 208.853 93.653 209.067 209.067v0c-0.256 115.456-93.653 208.853-209.067 209.109v0c-115.413-0.256-208.853-93.653-209.067-209.109v0zM432.427 276.608l60.757-60.715 60.715 60.715 60.757-60.715 60.8 60.715-60.8 60.8 60.8 60.757-60.8 60.757-60.757-60.757-60.715 60.757-60.757-60.757 60.757-60.757z" />
<glyph unicode="&#xe908;" glyph-name="editcompletion" d="M896 960h-554.667l-341.333-341.333v-640c0-25.6 17.067-42.667 42.667-42.667h853.333c25.6 0 42.667 17.067 42.667 42.667v938.667c0 25.6-17.067 42.667-42.667 42.667zM341.333 853.333v-234.667h-234.667l234.667 234.667zM853.333 21.333h-768v554.667h256c25.6 0 42.667 17.067 42.667 42.667v256h469.333v-853.333zM234.667 281.6l153.6-153.6 273.067 273.067-64 59.733-209.067-209.067-89.6 89.6z" />
<glyph unicode="&#xe909;" glyph-name="newfolder" d="M981.333 789.333v81.067c0 25.6-21.333 46.933-46.933 46.933h-516.267l-34.133 42.667h-337.067c-25.6 0-46.933-21.333-46.933-46.933v-930.133c0-25.6 21.333-46.933 46.933-46.933h930.133c25.6 0 46.933 21.333 46.933 46.933v759.467c0 25.6-17.067 42.667-42.667 46.933zM938.667 21.333h-853.333v853.333h256l128-170.667h469.333v-682.667zM938.667 789.333h-426.667l-64 85.333h490.667v-85.333zM469.333 576v-170.667h-170.667v-85.333h170.667v-170.667h85.333v170.667h170.667v85.333h-170.667v170.667z" />
<glyph unicode="&#xe90a;" glyph-name="approvalbox" d="M981.333 789.333v81.067c0 25.6-21.333 46.933-46.933 46.933h-516.267l-34.133 42.667h-337.067c-25.6 0-46.933-21.333-46.933-46.933v-930.133c0-25.6 21.333-46.933 46.933-46.933h930.133c25.6 0 46.933 21.333 46.933 46.933v759.467c0 25.6-17.067 42.667-42.667 46.933zM938.667 21.333h-853.333v853.333h256l128-170.667h469.333v-682.667zM938.667 789.333h-426.667l-64 85.333h490.667v-85.333zM341.333 384l-64-59.733 153.6-153.6 273.067 273.067-64 59.733-209.067-209.067z" />
<glyph unicode="&#xe90b;" glyph-name="documentadmin" d="M981.333 789.333v81.067c0 25.6-21.333 46.933-46.933 46.933h-516.267l-34.133 42.667h-337.067c-25.6 0-46.933-21.333-46.933-46.933v-930.133c0-25.6 21.333-46.933 46.933-46.933h930.133c25.6 0 46.933 21.333 46.933 46.933v759.467c0 25.6-17.067 42.667-42.667 46.933zM938.667 21.333h-853.333v853.333h256l128-170.667h469.333v-682.667zM938.667 789.333h-426.667l-64 85.333h490.667v-85.333zM384 448c0-42.667 21.333-76.8 51.2-102.4-81.067-29.867-136.533-106.667-136.533-196.267h426.667c0 89.6-55.467 166.4-136.533 196.267 29.867 25.6 51.2 59.733 51.2 102.4 0 72.533-55.467 128-128 128s-128-55.467-128-128zM678.4 192h-332.8c17.067 72.533 85.333 128 166.4 128s145.067-55.467 166.4-128zM512 533.333c46.933 0 85.333-38.4 85.333-85.333s-38.4-85.333-85.333-85.333-85.333 38.4-85.333 85.333 38.4 85.333 85.333 85.333z" />
<glyph unicode="&#xe90c;" glyph-name="documentbox" d="M1024 861.933c0 54.161-43.906 98.067-98.067 98.067h-827.866c-54.161 0-98.067-43.906-98.067-98.067v-827.866c0-54.161 43.906-98.067 98.067-98.067h827.866c54.161 0 98.067 43.906 98.067 98.067v827.866zM99.229 880.536h828.060c10.212 0 17.248-6.924 17.248-17.136v-466.269h-240.028c-21.969 0-39.774-17.044-39.774-39.010 0-86.629-70.48-156.729-157.109-156.729-84.453 0-153.555 67.165-156.977 150.793 0.35 2.117 0.53 3.624 0.53 5.839 0 21.967-17.808 39.106-39.775 39.106h-231.939v466.27c0 10.212 9.554 17.136 19.765 17.136zM927.288 15.464h-828.060c-10.211 0-19.765 9.666-19.765 19.878v282.325h194.845c18.965-111.37 116.369-196.884 233.315-196.884 116.944 0 214.35 85.514 233.314 196.884h203.598v-282.325c0-10.212-7.036-19.878-17.248-19.878zM287.538 695.723h449.452c21.967 0 39.774 17.764 39.774 39.732s-17.807 39.732-39.774 39.732h-449.452c-21.968 0-39.775-17.764-39.775-39.732s17.807-39.732 39.775-39.732zM287.538 512.715h449.452c21.967 0 39.774 17.765 39.774 39.732s-17.807 39.732-39.774 39.732h-449.452c-21.968 0-39.775-17.765-39.775-39.732s17.807-39.732 39.775-39.732z" />
<glyph unicode="&#xe90d;" glyph-name="latestdocumentbox" d="M928 304v48l-96 153.6v102.4l-192 224h-351.912c-35.395 0-64.088-28.705-64.088-64.158v-262.242l-96-153.6v-288h800v240zM224 352h-56.801l56.801 90.881v-90.881zM888.801 352h-56.801v90.881l56.801-90.881zM256 352v415.902c0 18.053 14.264 32.098 31.858 32.098h320.142v-159.811c0-35.82 28.624-64.189 63.933-64.189h128.067v-224h-544zM640 784l150.398-176h-118.503c-17.475 0-31.896 14.453-31.896 32.281v143.719zM320 480h416v-32h-416v32zM320 736h224v-32h-224v32zM320 608h224v-32h-224v32zM384 288v32h288v-32c0-35.593-28.616-64-63.917-64h-160.167c-35.249 0-63.917 28.654-63.917 64z" />
<glyph unicode="&#xe90e;" glyph-name="olddocumentbox" d="M128 576l160 256h480l160-256v-512h-800v512zM888.801 576l-140 224h-441.602l-140-224h721.602zM447.917 384c-35.3 0-63.917-28.407-63.917-64 0-35.346 28.667-64 63.917-64h160.167c35.3 0 63.917 28.407 63.917 64 0 35.346-28.667 64-63.917 64h-160.167zM352 768l-19.199-32h390.398l-19.199 32h-352zM310.398 704l-19.199-32h473.602l-19.199 32h-435.203zM272 640l-19.199-32h550.398l-19.199 32h-512z" />
<glyph unicode="&#xe90f;" glyph-name="admin" d="M384 764.587v24.747c0 46.933 38.4 85.333 85.333 85.333h85.333c47.128 0 85.333-38.205 85.333-85.333v0-24.747c31.296-12.852 58.309-28.763 82.652-47.915l-0.732 0.555 21.333 12.373c12.309 7.292 27.131 11.602 42.959 11.602 31.452 0 58.93-17.016 73.73-42.344l0.218-0.404 42.667-74.24c7.178-12.233 11.417-26.941 11.417-42.639 0-31.377-16.935-58.798-42.162-73.623l-0.401-0.218-21.333-12.373c2.086-14.229 3.277-30.655 3.277-47.36s-1.191-33.131-3.493-49.199l0.216 1.839 21.333-12.8c25.525-15.067 42.38-42.432 42.38-73.734 0-15.569-4.169-30.163-11.452-42.729l0.219 0.41-42.667-74.24c-15.043-25.629-42.464-42.563-73.841-42.563-15.698 0-30.406 4.239-43.042 11.635l0.403-0.218-21.333 12.8c-23.731-18.94-50.882-35.132-80.096-47.377l-2.25-0.837v-24.32c0-47.128-38.205-85.333-85.333-85.333v0h-85.333c-47.128 0-85.333 38.205-85.333 85.333v0 24.747c-31.296 12.852-58.309 28.763-82.652 47.915l0.732-0.555-21.333-12.373c-12.309-7.292-27.131-11.602-42.959-11.602-31.452 0-58.93 17.016-73.73 42.344l-0.218 0.404-42.667 74.24c-7.178 12.233-11.417 26.941-11.417 42.639 0 31.377 16.935 58.798 42.162 73.623l0.401 0.218 21.333 12.373c-2.086 14.229-3.277 30.655-3.277 47.36s1.191 33.131 3.493 49.199l-0.216-1.839-21.333 12.8c-25.525 15.067-42.38 42.432-42.38 73.734 0 15.569 4.169 30.163 11.452 42.729l-0.219-0.41 42.667 74.24c15.043 25.629 42.464 42.563 73.841 42.563 15.698 0 30.406-4.239 43.042-11.635l-0.403 0.218 21.333-12.8c23.731 18.94 50.882 35.132 80.096 47.377l2.25 0.837zM336.213 634.027l-23.040-21.76-75.52 43.52-42.667-74.24 75.093-43.093-7.253-31.147c-4.41-17.814-6.941-38.265-6.941-59.307s2.53-41.493 7.303-61.065l-0.362 1.758 7.253-31.147-75.093-43.093 42.667-74.24 75.52 43.52 23.040-21.76c28.094-26.832 62.427-47.384 100.586-59.248l1.814-0.486 30.72-8.533v-87.040h85.333v87.040l30.293 8.533c40.136 12.287 74.619 32.849 102.93 59.831l-0.103-0.097 23.040 21.76 75.52-43.52 42.667 74.24-75.093 43.093 7.253 31.147c4.41 17.814 6.941 38.265 6.941 59.307s-2.53 41.493-7.303 61.065l0.362-1.758-7.253 31.147 75.093 43.093-42.667 74.24-75.52-43.52-23.040 21.76c-28.094 26.832-62.427 47.384-100.586 59.248l-1.814 0.486-30.72 8.533v87.040h-85.333v-87.040l-30.293-8.533c-40.136-12.287-74.619-32.849-102.93-59.831l0.103 0.097zM512 277.333c-94.257 0-170.667 76.41-170.667 170.667s76.41 170.667 170.667 170.667v0c94.257 0 170.667-76.41 170.667-170.667s-76.41-170.667-170.667-170.667v0zM512 362.667c47.128 0 85.333 38.205 85.333 85.333s-38.205 85.333-85.333 85.333v0c-47.128 0-85.333-38.205-85.333-85.333s38.205-85.333 85.333-85.333v0z" />
<glyph unicode="&#xe910;" glyph-name="dashboard" d="M512 21.333c-235.641 0-426.667 191.025-426.667 426.667s191.025 426.667 426.667 426.667v0c235.641 0 426.667-191.025 426.667-426.667s-191.025-426.667-426.667-426.667v0zM242.347 657.067c-36.188-46.069-60.906-102.764-68.939-164.695l-0.181-1.705h40.107c23.564 0 42.667-19.103 42.667-42.667s-19.103-42.667-42.667-42.667v0h-40.107c7.16-56.432 27.195-107.102 57.064-150.476l-0.744 1.143c64.394 57.137 146.942 95.132 237.989 104.385l1.798 0.148v215.467c0 23.564 19.103 42.667 42.667 42.667s42.667-19.103 42.667-42.667v0-215.467c92.844-9.402 175.393-47.397 240.227-104.917l-0.44 0.383c29.125 42.232 49.16 92.902 56.145 147.649l0.175 1.684h-40.107c-23.564 0-42.667 19.103-42.667 42.667s19.103 42.667 42.667 42.667v0h40.107c-8.214 63.636-32.932 120.331-69.676 167.135l0.556-0.735-28.16-28.16c-7.753-7.753-18.463-12.548-30.293-12.548-23.661 0-42.841 19.181-42.841 42.841 0 11.83 4.795 22.541 12.548 30.293v0l28.587 28.16c-46.183 36.256-103.036 60.985-165.136 68.943l-1.691 0.177v-40.107c0-23.564-19.103-42.667-42.667-42.667s-42.667 19.103-42.667 42.667v0 40.107c-62.293-7.68-119.467-32.427-166.4-69.12l28.16-28.16c7.753-7.753 12.548-18.463 12.548-30.293 0-23.661-19.181-42.841-42.841-42.841-11.83 0-22.541 4.795-30.293 12.548v0l-28.16 28.587zM286.293 192c59.742-53.2 138.928-85.706 225.707-85.706s165.964 32.505 226.047 86.004l-0.341-0.298c-59.742 53.2-138.928 85.706-225.707 85.706s-165.964-32.505-226.047-86.004l0.341 0.298z" />
<glyph unicode="&#xe911;" glyph-name="statistics" d="M853.333 21.333h-682.667c-47.128 0-85.333 38.205-85.333 85.333v0 341.333c0 46.933 38.4 85.333 85.333 85.333h170.667v85.333c0 46.933 38.4 85.333 85.333 85.333h170.667v85.333c0 46.933 38.4 85.333 85.333 85.333h170.667c47.128 0 85.333-38.205 85.333-85.333v0-682.667c0-47.128-38.205-85.333-85.333-85.333v0zM597.333 618.667h-170.667v-512h170.667v512zM341.333 448h-170.667v-341.333h170.667v341.333zM682.667 789.333v-682.667h170.667v682.667h-170.667z" />
<glyph unicode="&#xe912;" glyph-name="compress" d="M725.333 618.667c0 25.6-17.067 42.667-42.667 42.667h-341.333c-25.6 0-42.667-17.067-42.667-42.667v-341.333c0-25.6 17.067-42.667 42.667-42.667h341.333c25.6 0 42.667 17.067 42.667 42.667v341.333zM682.667 277.333h-341.333v341.333h341.333v-341.333zM34.133 661.333h264.533v268.8l-102.4-89.6-128 119.467-68.267-64 123.733-132.267zM904.533 763.733l119.467 128-64 68.267-132.267-123.733-102.4 89.6v-264.533h268.8zM989.867 234.667h-264.533v-268.8l102.4 89.6 128-119.467 68.267 64-123.733 132.267zM119.467 132.267l-119.467-128 64-68.267 132.267 123.733 102.4-93.867v268.8h-268.8z" />
<glyph unicode="&#xe913;" glyph-name="move" d="M1011.499 478.176l-150.837 150.848c-16.661 16.661-43.68 16.661-60.341 0s-16.661-43.68 0-60.341l78.016-78.016h-323.669v323.659l78.005-78.005c16.661-16.661 43.68-16.661 60.341 0s16.661 43.68 0 60.341l-150.848 150.848c-16.661 16.661-43.68 16.661-60.341 0l-150.848-150.859c-16.661-16.661-16.661-43.68 0-60.341s43.68-16.661 60.341 0l78.016 78.016v-323.659h-323.659l78.005 78.005c16.661 16.661 16.661 43.68 0 60.341s-43.68 16.661-60.341 0l-150.848-150.837c-16.661-16.661-16.661-43.68 0-60.341l150.859-150.859c16.661-16.661 43.68-16.661 60.341 0s16.661 43.68 0 60.341l-78.016 78.016h323.659v-323.669l-78.005 78.016c-16.661 16.661-43.68 16.661-60.341 0s-16.661-43.68 0-60.341l150.848-150.848c16.661-16.661 43.68-16.661 60.341 0l150.859 150.848c16.661 16.661 16.661 43.68 0 60.341s-43.68 16.661-60.341 0l-78.027-78.005v323.659h323.659l-78.005-78.005c-16.661-16.661-16.661-43.68 0-60.341s43.68-16.661 60.341 0l150.848 150.859c16.661 16.64 16.661 43.669-0.011 60.331z" />
<glyph unicode="&#xe914;" glyph-name="etcdocumentbox" d="M981.333 960h-938.667c-25.6 0-42.667-17.067-42.667-42.667v-938.667c0-25.6 17.067-42.667 42.667-42.667h938.667c25.6 0 42.667 17.067 42.667 42.667v938.667c0 25.6-17.067 42.667-42.667 42.667zM938.667 21.333h-853.333v341.333h853.333v-341.333zM938.667 405.333h-853.333v85.333h853.333v-85.333zM938.667 533.333h-853.333v85.333h853.333v-85.333zM938.667 661.333h-853.333v85.333h853.333v-85.333zM938.667 789.333h-853.333v85.333h853.333v-85.333zM640 320h-256v-128h256v128zM597.333 234.667h-170.667v42.667h170.667v-42.667z" />
</font>
</defs>
</svg>
